<svg width="800" height="600" xmlns="http://www.w3.org/2000/svg">
 <g>
  <title>Layer 1</title>
  <path fill="#fff" stroke="#000" opacity="undefined" d="m174.99998,164.99998l390,0l0,235l-390,0l0,-235z" id="svg_1"/>
  <line fill="none" x1="369.99998" y1="166.99998" x2="369.99998" y2="399.99998" id="svg_2" stroke-dasharray="5,5" stroke="#000"/>
  <ellipse fill="#fff" cx="257.49999" cy="297.49998" id="svg_4" rx="6" ry="6" stroke="#000"/>
  <ellipse fill="#fff" cx="216.49999" cy="249.49998" id="svg_6" rx="6" ry="6" stroke="#000"/>
  <ellipse fill="#fff" cx="420.49999" cy="306.49998" id="svg_7" rx="6" ry="6" stroke="#000"/>
  <ellipse fill="#fff" cx="465.49999" cy="302.49998" id="svg_8" rx="6" ry="6" stroke="#000"/>
  <ellipse fill="#fff" cx="448.49999" cy="333.49998" id="svg_10" rx="6" ry="6" stroke="#000"/>
  <ellipse fill="#fff" cx="497.49999" cy="281.49998" id="svg_11" rx="6" ry="6" stroke="#000"/>
  <ellipse fill="#fff" cx="208.49999" cy="299.49998" id="svg_12" rx="6" ry="6" stroke="#000"/>
  <ellipse fill="#fff" cx="281.49999" cy="198.49998" id="svg_13" rx="6" ry="6" stroke="#000"/>
  <ellipse fill="#fff" cx="251.49999" cy="256.49998" id="svg_14" rx="6" ry="6" stroke="#000"/>
  <ellipse fill="#fff" cx="240.49999" cy="337.49998" id="svg_15" rx="6" ry="6" stroke="#000"/>
  <ellipse fill="#fff" cx="304.49999" cy="329.49998" id="svg_16" rx="6" ry="6" stroke="#000"/>
  <ellipse fill="#fff" cx="335.49999" cy="314.49998" id="svg_17" rx="6" ry="6" stroke="#000"/>
  <ellipse fill="#fff" cx="330.49999" cy="254.49998" id="svg_18" rx="6" ry="6" stroke="#000"/>
  <ellipse fill="#fff" cx="297.49999" cy="288.49998" id="svg_19" rx="6" ry="6" stroke="#000"/>
  <ellipse fill="#fff" cx="272.49999" cy="357.49998" id="svg_20" rx="6" ry="6" stroke="#000"/>
  <ellipse fill="#fff" cx="230.49999" cy="208.49998" id="svg_21" rx="6" ry="6" stroke="#000"/>
  <ellipse fill="#fff" cx="297.49999" cy="241.49998" id="svg_22" rx="6" ry="6" stroke="#000"/>
  <ellipse fill="#fff" cx="331.49999" cy="370.49998" id="svg_23" rx="6" ry="6" stroke="#000"/>
  <ellipse fill="#fff" cx="420.49999" cy="258.49998" id="svg_24" rx="6" ry="6" stroke="#000"/>
  <ellipse fill="#fff" cx="465.49999" cy="254.49998" id="svg_25" rx="6" ry="6" stroke="#000"/>
  <ellipse fill="#fff" cx="495.49999" cy="219.49998" id="svg_26" rx="6" ry="6" stroke="#000"/>
  <text fill="#000000" stroke="#000" stroke-width="0" x="182.99998" y="382.99998" id="svg_28" font-size="28" font-family="'Vollkorn'" text-anchor="start" xml:space="preserve" font-style="italic">M</text>
  <text fill="#000000" stroke="#000" stroke-width="0" x="533" y="383" id="svg_29" font-size="28" font-family="'Vollkorn'" text-anchor="start" xml:space="preserve" font-style="italic">N</text>
  <ellipse fill="#fff" cx="263.49999" cy="225.49998" id="svg_30" rx="6" ry="6" stroke="#000"/>
 </g>

</svg>